<svg width="23" height="22" viewBox="0 0 23 22" fill="none" xmlns="http://www.w3.org/2000/svg">
<g clip-path="url(#clip0_418_37)">
<path d="M22.0863 5.17538V3.88513H0V5.17538H14.2047L14.1377 5.18018C14.1916 5.60747 14.2346 6.03715 14.2705 6.47043H22.0863V5.18018L22.0456 5.17538H22.0863Z" fill="white"/>
<path d="M5.83365 20.7146H12.1389L12.1317 20.7195C11.9581 21.1515 11.7762 21.5776 11.5859 22C13.264 21.9198 14.8439 21.4663 16.2442 20.7195L16.2263 20.7146H16.2538C16.9348 20.3507 17.5728 19.9175 18.1593 19.4243H3.92821C4.51469 19.9175 5.15262 20.3507 5.83365 20.7146Z" fill="white"/>
<path d="M1.67087 16.8295H13.4208L13.404 16.8343C13.2927 17.2675 13.1718 17.6972 13.0437 18.1246H19.4675C19.8145 17.72 20.1293 17.2879 20.413 16.8343L20.3963 16.8295H20.4153C20.6751 16.4165 20.9062 15.9857 21.1097 15.5392H0.976669C1.18015 15.9857 1.41114 16.4165 1.67087 16.8295Z" fill="white"/>
<path d="M0.169936 12.9444H14.1377V12.9492C14.0838 13.3813 14.0192 13.8122 13.9486 14.2395H21.6014C21.7308 13.8194 21.8361 13.3885 21.9151 12.9492L21.8744 12.9444H21.9151C21.9904 12.5219 22.0407 12.091 22.0658 11.6542H0.0203171C0.0454465 12.091 0.0957236 12.5219 0.17113 12.9444H0.169936Z" fill="white"/>
<path d="M0 9.06051H14.3938L14.3783 9.06531C14.3783 9.49739 14.3663 9.92707 14.3496 10.3556H22.0863V9.06531L22.0456 9.06051H22.0863V7.77026H0V9.06051Z" fill="white"/>
<path d="M22.0575 1.29144H22.0863V0H0V1.29144H13.4806L13.4052 1.29504C13.5153 1.72234 13.6135 2.15202 13.7056 2.58649H22.0863V1.29504L22.0575 1.29144Z" fill="white"/>
</g>
<defs>
<clipPath id="clip0_418_37">
<rect width="22.0863" height="22" fill="white"/>
</clipPath>
</defs>
</svg>
